<?xml version="1.0" encoding="UTF-8"?>
<!-- Generator: Adobe Illustrator 21.1.0, SVG Export Plug-In . SVG Version: 6.00 Build 0)  -->
<svg version="1.1" id="レイヤー_1" xmlns="http://www.w3.org/2000/svg" xmlns:xlink="http://www.w3.org/1999/xlink" x="0px" y="0px" viewBox="0 0 16 16" style="enable-background:new 0 0 16 16;" xml:space="preserve">
<style type="text/css">
	.st0{fill:#FFFFFF;}
</style>
<path class="st0" d="M8,3.8C5.7,3.8,3.8,5.7,3.8,8s1.9,4.2,4.2,4.2s4.2-1.9,4.2-4.2S10.3,3.8,8,3.8z M8,10.5c-1.4,0-2.5-1.1-2.5-2.5  S6.6,5.5,8,5.5s2.5,1.1,2.5,2.5S9.4,10.5,8,10.5z"/>
<circle class="st0" cx="12.2" cy="3.8" r="1.1"/>
<path class="st0" d="M11.3,1.6c1.7,0,3.1,1.4,3.1,3.1v6.6c0,1.7-1.4,3.1-3.1,3.1H4.7c-1.7,0-3.1-1.4-3.1-3.1V4.7  C1.6,3,3,1.6,4.7,1.6H11.3 M11.3,0H4.7C2.1,0,0,2.1,0,4.7v6.6C0,13.9,2.1,16,4.7,16h6.6c2.6,0,4.7-2.1,4.7-4.7V4.7  C16,2.1,13.9,0,11.3,0L11.3,0z"/>
</svg>